<?xml version="1.0" encoding="UTF-8"?>
<svg id="Calque_2" data-name="Calque 2" xmlns="http://www.w3.org/2000/svg" viewBox="0 0 269.74 282.16">
  <defs>
    <style>
      .cls-1 {
        fill: #012e13;
        stroke-width: 0px;
      }
    </style>
  </defs>
  <g id="NEW_FINAL" data-name="NEW FINAL">
    <path class="cls-1" d="m81.45,168.19c7.35-5.24,14.84-10.31,22.44-15.23l-18.15-6.63,5.07-13.86,28.98,10.59c12.13-7.31,24.51-14.19,37.08-20.59l6.7,13.15c-8.71,4.43-17.32,9.11-25.82,13.99l30.19,11.03-5.07,13.86-41.46-15.15c-10.7,6.62-21.18,13.58-31.38,20.85l-8.56-12.02Zm188.29-123.98c-1.17,8.79-2.37,17.88-5.36,26.78-3.53,10.52-9.21,19.11-16.42,24.83-11.56,9.18-28.21,11.8-43.44,6.84-2.82-.92-5.58-2.09-8.27-3.48-4.7,6.53-10.45,11.6-17,14.88-5.89,2.95-12.49,4.41-19.17,4.41-7.66,0-15.42-1.92-22.33-5.74-1.17-.64-2.3-1.34-3.41-2.07-5.82,2.56-11.73,3.9-21.46,2.34l-.15-.03c-9.1-1.65-17.34-5.95-24.49-12.79-4.32-4.13-8.27-9.2-12.01-15.39-.34,2.83-.77,5.66-1.28,8.46-1.62,8.87-5.46,16.36-11.1,21.67-5.61,5.29-12.6,8.02-20.39,8.02-1.35,0-2.72-.08-4.12-.25-11.59-1.37-21.97-7.91-29.22-18.4-4.41-6.39-7.55-14.03-9.08-22.12-1.52-8.07-1.37-16.17.43-23.45,1.66-6.68,5.39-15.98,13.73-22.28,8.41-6.36,19.78-7.57,28.3-3.03,5.93,3.16,10.58,9.1,12.77,16.29,1.6,5.26,1.99,11.24,1.19,18.29l-14.67-1.66c.57-5.01.36-9.04-.64-12.33-1.04-3.42-3.13-6.25-5.6-7.56-3.49-1.86-8.61-1.13-12.45,1.78-3.82,2.89-6.77,7.88-8.31,14.06-2.65,10.67-.05,24.19,6.47,33.62,3.4,4.92,9.43,11.02,18.81,12.14,14.68,1.74,18.52-12.91,19.35-17.45,2.99-16.33,2.74-33.34-.69-49.6-.61-2.48-1.2-4.95-1.79-7.41l14.3-3.66c.7,2.56,1.32,5.14,1.88,7.74,2.98,12.04,6.42,24.12,12.12,34.85,8.27,15.57,17.51,23.81,29.05,25.93,2.69.43,4.82.55,6.66.43-4.08-5.44-7.18-11.74-9.03-18.55-1.75-6.45-1.99-12.08-.74-17.19,1.78-7.23,6.62-12.94,12.95-15.29,5.27-1.95,11.59-1.46,17.34,1.35,5.55,2.72,10.23,7.44,13.18,13.31,2.83,5.63,3.98,12.09,3.24,18.19-.94,7.74-4.72,15.08-10.44,20.79,7.93,3.12,17.08,2.96,24.22-.62,4.79-2.4,8.54-6.04,11.45-10.04-4.8-4.2-9.15-9.22-12.86-14.92-6.68-10.26-11.51-22.78-14.76-38.28-1.18-5.62-2.13-11.68-1.1-17.87,1.31-7.9,5.85-14.49,12.13-17.63,7.27-3.64,16.66-2.51,23.93,2.88,5.03,3.73,9.05,9.28,12.28,16.95,7.14,16.98,8.09,36.76,2.67,55.69-.86,3.01-1.86,5.88-3,8.61,1.86.95,3.77,1.74,5.7,2.37,10.42,3.4,22.07,1.68,29.68-4.36,4.97-3.95,8.98-10.16,11.6-17.97,2.54-7.55,3.65-15.93,4.72-24.02l14.63,1.94Zm-133.78,18.22c-1.4-.68-2.81-1.04-4.04-1.04-.62,0-1.19.09-1.68.27-1.66.61-3.16,2.61-3.74,4.97-.64,2.62-.43,5.82.65,9.8,1.67,6.14,4.8,11.8,8.92,16.32,4.46-3.6,7.52-8.68,8.15-13.86.82-6.68-2.73-13.76-8.26-16.46Zm54.16-34.76c-2.17-5.17-4.62-8.71-7.46-10.82-1.84-1.36-4.01-2.1-5.93-2.1-.96,0-1.85.18-2.6.56-2.01,1.01-3.65,3.7-4.17,6.85-.59,3.58-.04,7.55.98,12.42,2.87,13.68,7.01,24.56,12.68,33.26,2.24,3.44,4.75,6.55,7.46,9.29.45-1.28.82-2.48,1.13-3.56,4.5-15.71,3.76-32.01-2.09-45.91Zm25.7,149.3l-14.73-.89c-.67,11.03-3.25,21.86-7.52,31.98-6.27-7.45-9.74-16.35-9.53-24.92l-13.04-4.91c-10.68,12.8-14.65,29.71-10.61,45.22l14.28-3.72c-1.26-4.83-1.4-9.87-.5-14.79,2.9,6.16,7.03,11.96,12.18,17.01-2.73,4.36-5.8,8.52-9.21,12.4-14.14,16.15-33.54,27.31-54.61,31.42-20.17,3.93-40.16.69-54.84-8.91-16.06-10.49-25.4-29.01-23.24-46.09.86-6.77,3.67-12,7.52-14,4.7-2.44,11.17-.26,15.2,2.81,5.5,4.19,9.49,10.77,13.34,17.13l12.63-7.64c-4.35-7.2-9.29-15.35-17.03-21.24-9.6-7.3-21.74-8.93-30.93-4.16-8.27,4.3-13.87,13.5-15.36,25.24-1.45,11.44.79,23.33,6.48,34.38,5.41,10.51,13.47,19.47,23.33,25.91,9.32,6.09,20.06,10.09,31.94,11.89,4.61.7,9.37,1.05,14.2,1.05,6.51,0,13.12-.63,19.6-1.9,24.27-4.73,46.6-17.58,62.89-36.18,3.59-4.1,6.86-8.45,9.8-13.01,9.25,5.76,20.48,9.99,33.52,12.61l2.91-14.47c-11.62-2.34-21.43-6.05-29.26-11.07,6.08-12.87,9.74-26.88,10.6-41.18Z"/>
  </g>
</svg>