<svg version="1.1" id="Calque_1" xmlns="http://www.w3.org/2000/svg" xmlns:xlink="http://www.w3.org/1999/xlink" height="65px" width="65px"
	 viewBox="0 0 65 65" style="enable-background:new 0 0 65 65;" xml:space="preserve">
<style type="text/css">
	.st0{fill:#0000FF;}
</style>
<text transform="matrix(1 0 0 1 15.3645 99.0007)" class="st0" style="font-family:'SpaceMono-Bold'; font-size:14px;">Next</text>
<g>
	<path class="st0" d="M34.7,29l7.7-6.9h-30V16h30l-7.7-6.9L38.2,5l14.4,13.9v0.2l-14.3,14L34.7,29z"/>
	<g>
		<path class="st0" d="M21,45.7h0.3v-8.9h1.8v9.8h-3.6l-1.1-8.9h-0.3v8.9h-1.8v-9.8h3.6L21,45.7z"/>
		<path class="st0" d="M25.1,36.8h6.2v1.8H27v2.2h4.2v1.8H27v2.3h4.5v1.8h-6.4V36.8z"/>
		<path class="st0" d="M35,36.8l1.7,4H37l1.7-4h2l-2,4.8v0.3l2,4.8h-2l-1.7-4h-0.3l-1.7,4h-2l2-4.8v-0.3l-2-4.8H35z"/>
		<path class="st0" d="M41.9,36.8h7.1v1.8h-2.6v8h-1.8v-8h-2.6V36.8z"/>
	</g>
	<g>
		<path class="st0" d="M12.1,50h6.6v1.8h-2.4V58h2.4v1.8h-6.6V58h2.4v-6.3h-2.4V50z"/>
		<path class="st0" d="M20,50h3.2l0.6,7.4v1.4h0.3v-1.4l0.6-7.4h3.2v9.8h-1.7v-6.6l0.2-2.2h-0.3l-0.7,8.8h-2.8L21.8,51h-0.3l0.2,2.2
			v6.6H20V50z"/>
		<path class="st0" d="M34.2,57.7h-3.3l-0.5,2.1h-1.9l2.3-9.8h3.5l2.3,9.8h-1.9L34.2,57.7z M31.3,55.9h2.5l-1.1-5h-0.3L31.3,55.9z"
			/>
		<path class="st0" d="M40.5,54.8h4.2v5H43v-1.1h-0.3c-0.1,0.4-0.3,0.7-0.6,0.9S41.3,60,40.6,60c-0.4,0-0.9-0.1-1.3-0.3
			s-0.7-0.4-1-0.7s-0.5-0.7-0.7-1.2s-0.3-1.1-0.3-1.7v-2.3c0-0.6,0.1-1.2,0.3-1.7c0.2-0.5,0.4-0.9,0.8-1.2c0.3-0.3,0.7-0.6,1.2-0.8
			c0.4-0.2,0.9-0.3,1.5-0.3c0.6,0,1.1,0.1,1.5,0.3c0.4,0.2,0.8,0.4,1.1,0.8c0.3,0.3,0.5,0.7,0.7,1.1c0.2,0.4,0.2,0.9,0.2,1.4v0.2
			h-1.8v-0.2c0-0.6-0.2-1-0.5-1.3c-0.3-0.3-0.7-0.5-1.3-0.5c-0.5,0-1,0.2-1.3,0.5s-0.5,1-0.5,1.8v2.1c0,1.5,0.6,2.3,1.8,2.3
			c0.6,0,1-0.1,1.3-0.4c0.3-0.3,0.4-0.7,0.4-1.2h-2.4V54.8z"/>
		<path class="st0" d="M46.5,50h6.2v1.8h-4.3V54h4.2v1.8h-4.2V58h4.5v1.8h-6.4V50z"/>
	</g>
</g>
</svg>
